<?xml version="1.0" encoding="UTF-8"?>
<svg width="13px" height="12px" viewBox="0 0 13 12" version="1.1" xmlns="http://www.w3.org/2000/svg" xmlns:xlink="http://www.w3.org/1999/xlink">
    <!-- Generator: sketchtool 61.1 (101010) - https://sketch.com -->
    <title>8BDC3020-8ED2-447A-B431-3A04D26C288D</title>
    <desc>Created with sketchtool.</desc>
    <g id="Page-1" stroke="none" stroke-width="1" fill="none" fill-rule="evenodd">
        <g id="Annotation-Workbench---Categorise" transform="translate(-470.000000, -1252.000000)" fill="#000000">
            <g id="Group-2-Copy-4" transform="translate(222.000000, 1230.000000)">
                <g id="Group-3">
                    <path d="M260.392442,23.7915542 L255.933648,27.9995624 L260.392442,32.209321 C260.826451,32.6171687 260.826451,33.2823281 260.392442,33.6919262 C260.175437,33.8967253 259.889808,34 259.604178,34 C259.322257,34 259.036627,33.8967253 258.817768,33.6919262 L254.358974,29.483918 L249.900181,33.6919262 C249.683176,33.8967253 249.395691,34 249.113771,34 C248.828141,34 248.542511,33.8967253 248.325507,33.6919262 C247.891498,33.2823281 247.891498,32.6171687 248.325507,32.209321 L252.784301,27.9995624 L248.325507,23.7915542 C247.891498,23.3837065 247.891498,22.7185472 248.325507,22.3071986 C248.761371,21.8976005 249.464317,21.8976005 249.900181,22.3071986 L254.358974,26.5152068 L258.817768,22.3071986 C259.255487,21.8976005 259.960288,21.8993509 260.392442,22.3071986 C260.826451,22.7185472 260.826451,23.3837065 260.392442,23.7915542" id="close-black"></path>
                </g>
            </g>
        </g>
    </g>
</svg>