<?xml version="1.0" encoding="UTF-8"?>
<svg width="20px" height="10px" viewBox="0 0 20 10" version="1.1" xmlns="http://www.w3.org/2000/svg" xmlns:xlink="http://www.w3.org/1999/xlink">
    <!-- Generator: sketchtool 61.1 (101010) - https://sketch.com -->
    <title>C5C6A16A-C48B-4B67-AB60-B914B5923B18</title>
    <desc>Created with sketchtool.</desc>
    <g id="Page-1" stroke="none" stroke-width="1" fill="none" fill-rule="evenodd">
        <g id="Annotation-Workbench---Pending-Articles" transform="translate(-1310.000000, -40.000000)" fill="#FFFFFF">
            <g id="Logo-Top-tab/with-menu">
                <g id="Group" transform="translate(1268.000000, 33.000000)">
                    <path d="M47.6133606,22 C47.4570188,22 47.2996551,21.9385425 47.1800996,21.8166691 C46.9399668,21.5729222 46.9399668,21.177094 47.1800996,20.9333472 L55.6542343,12.294918 C55.8126197,12.1324202 55.8126197,11.8678403 55.6542343,11.7053424 L47.1800996,3.06691319 C46.9399668,2.82316637 46.9399668,2.42733819 47.1800996,2.18359136 C47.4192106,1.93880288 47.8075105,1.93880288 48.0466215,2.18359136 L56.5207562,10.8220205 C56.8303742,11.1365998 57,11.5553443 57,12.0001302 C57,12.4449161 56.8303742,12.8636606 56.5207562,13.1782399 L48.0466215,21.8166691 C47.927066,21.9385425 47.7697024,22 47.6133606,22" id="Menu-down" transform="translate(52.000000, 12.000000) rotate(90.000000) translate(-52.000000, -12.000000) "></path>
                </g>
            </g>
        </g>
    </g>
</svg>