<?xml version="1.0" encoding="UTF-8"?>
<svg width="24px" height="24px" viewBox="0 0 24 24" version="1.1" xmlns="http://www.w3.org/2000/svg" xmlns:xlink="http://www.w3.org/1999/xlink">
    <!-- Generator: sketchtool 61.1 (101010) - https://sketch.com -->
    <title>FFFC02E8-48B9-438F-BE7B-F032CB185854</title>
    <desc>Created with sketchtool.</desc>
    <g id="Page-1" stroke="none" stroke-width="1" fill="none" fill-rule="evenodd">
        <g id="Annotation-Workbench---Pending-Articles" transform="translate(-1268.000000, -33.000000)" fill="#FFFFFF">
            <g id="Logo-Top-tab/with-menu">
                <g id="Group" transform="translate(1268.000000, 33.000000)">
                    <g id="Group-6">
                        <path d="M21.7567286,21.9911894 C21.4546519,22.3769182 20.9829473,22.6069613 20.4949772,22.6069613 L2.97336222,22.6069613 C2.48539204,22.6069613 2.01368753,22.3769182 1.71161075,21.9911894 C1.42696148,21.6286973 1.32936744,21.190686 1.43509432,20.757322 C2.60506091,16.0123929 6.83994497,12.6976812 11.7347506,12.6976812 C16.6283944,12.6976812 20.8632785,16.0123929 22.0332451,20.757322 C22.1389719,21.190686 22.0413779,21.6286973 21.7567286,21.9911894 M6.77952962,6.3494215 C6.77952962,3.61795033 9.0021176,1.39420051 11.7347506,1.39420051 C14.4662218,1.39420051 16.6888098,3.61795033 16.6888098,6.3494215 C16.6888098,9.08205451 14.4662218,11.3034807 11.7347506,11.3034807 C9.0021176,11.3034807 6.77952962,9.08205451 6.77952962,6.3494215 M23.3867814,20.4238757 C22.3364837,16.1622694 19.1019385,12.9219151 15.044815,11.7647287 C16.8654085,10.6470446 18.0830103,8.63823401 18.0830103,6.3494215 C18.0830103,2.84881638 15.2353557,0 11.7347506,0 C8.23298365,0 5.3853291,2.84881638 5.3853291,6.3494215 C5.3853291,8.63823401 6.60293089,10.6470446 8.42352439,11.7647287 C4.3664009,12.9219151 1.1318557,16.1622694 0.0815579849,20.4238757 C-0.126410258,21.2685288 0.0676159798,22.1538462 0.614839681,22.8497846 C1.18646189,23.5817398 2.04738071,24 2.97336222,24 L20.4949772,24 C21.4209587,24 22.2818775,23.5817398 22.8534997,22.8497846 C23.4007234,22.1538462 23.5947496,21.2685288 23.3867814,20.4238757" id="User"></path>
                    </g>
                </g>
            </g>
        </g>
    </g>
</svg>